HIERARCHY
ROOT Hips
{
    OFFSET 0.0 0.0 0.0
    CHANNELS 6 Xposition Yposition Zposition Zrotation Xrotation Yrotation
    JOINT LeftUpLeg
    {
        OFFSET 13.192130300830758 0.0 0.0
        CHANNELS 3 Zrotation Xrotation Yrotation
        JOINT LeftLeg
        {
            OFFSET 0.0 0.0 -47.019884620730636
            CHANNELS 3 Zrotation Xrotation Yrotation
            JOINT LeftFoot
            {
                OFFSET 0.0 0.0 -41.71526122298722
                CHANNELS 3 Zrotation Xrotation Yrotation
                JOINT LeftToeBase
                {
                    OFFSET 0.0 -11.748369727399442 0.0
                    CHANNELS 3 Zrotation Xrotation Yrotation
                    End Site
                    {
                        OFFSET 0 0 0
                    }
                }
            }
        }
    }
    JOINT RightUpLeg
    {
        OFFSET -13.192130300830758 0.0 0.0
        CHANNELS 3 Zrotation Xrotation Yrotation
        JOINT RightLeg
        {
            OFFSET 0.0 0.0 -47.019884620730636
            CHANNELS 3 Zrotation Xrotation Yrotation
            JOINT RightFoot
            {
                OFFSET 0.0 0.0 -41.71526122298722
                CHANNELS 3 Zrotation Xrotation Yrotation
                JOINT RightToeBase
                {
                    OFFSET 0.0 -11.748369727399442 0.0
                    CHANNELS 3 Zrotation Xrotation Yrotation
                    End Site
                    {
                        OFFSET 0 0 0
                    }
                }
            }
        }
    }
    JOINT Spine
    {
        OFFSET 0.0 0.0 11.85823272692818
        CHANNELS 3 Zrotation Xrotation Yrotation
        JOINT Spine1
        {
            OFFSET 0.0 0.0 11.761648042143339
            CHANNELS 3 Zrotation Xrotation Yrotation
            JOINT Spine2
            {
                OFFSET 0.0 0.0 11.76164804214334
                CHANNELS 3 Zrotation Xrotation Yrotation
                JOINT Spine3
                {
                    OFFSET 0.0 0.0 11.761648042143339
                    CHANNELS 3 Zrotation Xrotation Yrotation
                    JOINT Spine4
                    {
                        OFFSET 0.0 0.0 11.761648042143342
                        CHANNELS 3 Zrotation Xrotation Yrotation
                        JOINT RightShoulder
                        {
                            OFFSET -22.581153688193016 0.0 0.0
                            CHANNELS 3 Zrotation Xrotation Yrotation
                            JOINT RightArm
                            {
                                OFFSET -33.47462777269877 0.0 0.0
                                CHANNELS 3 Zrotation Xrotation Yrotation
                                JOINT RightForeArm
                                {
                                    OFFSET -30.22523189065788 0.0 0.0
                                    CHANNELS 3 Zrotation Xrotation Yrotation
                                    JOINT RightHand
                                    {
                                        OFFSET -9.275842910336765 0.0 0.0
                                        CHANNELS 3 Zrotation Xrotation Yrotation
                                        End Site
                                        {
                                            OFFSET 0 0 0
                                        }
                                    }
                                }
                            }
                        }
                        JOINT LeftShoulder
                        {
                            OFFSET 22.581153688193016 0.0 0.0
                            CHANNELS 3 Zrotation Xrotation Yrotation
                            JOINT LeftArm
                            {
                                OFFSET 33.47462777269877 0.0 0.0
                                CHANNELS 3 Zrotation Xrotation Yrotation
                                JOINT LeftForeArm
                                {
                                    OFFSET 30.22523189065788 0.0 0.0
                                    CHANNELS 3 Zrotation Xrotation Yrotation
                                    JOINT LeftHand
                                    {
                                        OFFSET 9.275842910336765 0.0 0.0
                                        CHANNELS 3 Zrotation Xrotation Yrotation
                                        End Site
                                        {
                                            OFFSET 0 0 0
                                        }
                                    }
                                }
                            }
                        }
                        JOINT Neck
                        {
                            OFFSET 0.0 0.0 11.761647982014924
                            CHANNELS 3 Zrotation Xrotation Yrotation
                            JOINT Head
                            {
                                OFFSET 0.0 0.0 26.277827171110044
                                CHANNELS 3 Zrotation Xrotation Yrotation
                                End Site
                                {
                                    OFFSET 0 0 0
                                }
                            }
                        }
                    }
                }
            }
        }
    }
}
MOTION
Frames: 7
Frame Time: 0.03333333333333333
57.496893954277034 -33.205217170715336 468.1468242645264 163.85702888619167 -75.32685005959314 165.11510026724306 -61.567798998196764 39.584249616036345 0.004823977396742008 51.68823384409455 -14.410282194382235 45.090097828757294 83.035044535387 -9.54166404439055e-15 45.38389744605746 -6.3611093629270335e-15 -1.5902773407317584e-15 1.5902773407317584e-15 138.68701869482265 31.252153081126146 -43.565029239709915 -113.3265153712259 -10.88627468889056 -81.63274036897421 -140.49474737869872 1.2722218725854067e-14 -57.00799637355011 -2.3854160110976376e-15 0.0 0.0 -0.10906162285186834 2.5627356537406003 -1.7769929881870141 3.975693351829396e-16 0.0 0.0 3.975693351829396e-16 0.0 0.0 3.975693351829396e-16 0.0 0.0 3.975693351829396e-16 0.0 0.0 -84.78464367667078 34.807980770415845 -32.05299894549302 13.825369926016602 -5.142709260278188e-15 3.827335796148302e-15 1.100017360237876e-14 -57.8154646155015 1.3340882383810817e-14 1.5902773407317584e-15 -3.1805546814635168e-15 4.4139062980501586e-32 119.0858272432882 -30.99395622650073 34.03676677558657 -8.076624855349639 4.441721123044187e-14 3.135801418950164e-15 1.8036386182380364e-14 -83.7143332315916 3.323994743967153e-14 0.0 0.0 0.0 -1.4291364222533662 8.34956010220058e-15 5.017377620982891e-16 0.0 0.0 0.0
57.29538717269897 -32.356350338459016 468.45486660003667 165.33658629935704 -73.23088987458232 167.53340899363772 -82.328846204585 42.63307003879285 12.727446273131978 66.20159383805607 -15.98489151357134 52.410013161109674 97.88680869777653 0.0 45.017850416307915 -3.1805546814635168e-15 0.0 0.0 137.65874316168555 32.232641543399936 -44.439822200349106 -111.4213003642274 -12.455707410411014 -84.34571283414536 -153.10104833271456 3.1805546814635168e-15 -53.23716009951 -3.180554681463516e-15 0.0 0.0 -0.14254601683087925 3.7843877832098407 -2.4725376165692823 0.0 0.0 0.0 0.0 0.0 0.0 0.0 0.0 0.0 0.0 0.0 0.0 -77.84155781169143 42.63881903863835 -36.532702935919616 13.560265428591144 -5.741871482753315e-16 5.273066858689036e-15 3.398081976671889e-14 -58.199075652666004 1.5273111748677766e-14 -1.5902773407317584e-15 4.4139062980501586e-32 -3.1805546814635168e-15 105.54549601475006 -8.39380836192188 28.909140972651386 -7.706431898144441 6.560465224827957e-15 -2.7458944704268098e-15 180.0 -58.76817984599668 180.0 0.0 0.0 0.0 -1.2846437050861526 2.327606719956654e-15 -3.714992857190901e-16 0.0 0.0 0.0
57.22828767299652 -31.707264983654024 468.67467899322514 167.38869910636188 -71.51759303076884 169.95350500664287 -103.03127769315017 41.8597066876262 26.60071127425693 81.02922634211393 -16.956488752526628 59.437602938462376 113.90389096109541 3.1805546814635168e-15 41.6583348969197 -3.1805546814635168e-15 0.0 0.0 134.62936518497673 32.47444622694647 -43.786809517427365 -109.14303558865231 -14.218067488801807 -82.94444456468146 -170.99027236961894 -1.6697912077683464e-14 -46.41309435201111 0.0 0.0 0.0 -0.08462104686028188 4.780545349070642 -2.8385435840131743 0.0 0.0 0.0 0.0 0.0 0.0 0.0 0.0 0.0 0.0 0.0 0.0 -71.15490284825819 47.355364787923214 -41.33798012930203 14.623514159178733 4.641917219994594e-16 -8.877793317268062e-15 4.40486452570097e-14 -76.92980857646803 3.4993842991558494e-14 2.782985346280577e-15 0.0 0.0 95.42199218067712 10.977796575552256 29.72905444382829 -7.681825594236231 -1.5014838697316463e-14 -1.3758912393300832e-14 -180.0 -30.481429233575 180.0 0.0 0.0 0.0 -1.0055307320206652 -9.510237788632428e-15 -8.345363216340648e-17 0.0 0.0 0.0
57.41369347572327 -31.70291429758072 468.6647037506104 171.5599052774824 -71.20765781310696 173.33594895616687 -119.99012487242943 37.7039175603674 37.56801243798339 96.3487289499527 -16.555687978001597 66.63100002519542 129.33912269713022 0.0 40.39671434779988 1.5902773407317584e-15 0.0 0.0 145.59971918562567 24.29697850112916 -49.400658738813945 -122.48492966335296 -13.840130031635429 -82.73810711163408 163.13581552808205 5.565970692561154e-15 -41.954281674459715 0.0 0.0 -7.951386703658792e-16 0.008118907120295485 4.639374884234613 -2.3349320145573307 -1.987846675914698e-16 0.0 0.0 -1.987846675914698e-16 0.0 0.0 -1.987846675914698e-16 0.0 0.0 -1.987846675914698e-16 0.0 0.0 -65.50616458260762 49.06398189120077 -45.04117314402433 15.526686627039238 -5.478965493315919e-15 -4.870503573297839e-15 -179.99999999999994 -84.56660868108328 -179.99999999999991 -1.5902773407317584e-15 0.0 0.0 79.46956746932327 34.827156623851494 37.247047656807965 -9.193769997598672 8.594933825153304e-15 -7.684837668478705e-15 -180.0 61.93634064898152 180.0 0.0 0.0 0.0 0.06393699966878655 -6.261716054449895e-15 3.493759769456098e-18 1.987846675914698e-16 0.0 0.0
57.66823325157166 -32.06348844766617 468.5511154174805 176.14989179527166 -71.36463165743577 176.79174188665868 -135.25077845303878 31.063646405010147 46.78268916307398 112.70580422520638 -15.662991067860677 74.14512562245034 144.40417480230775 3.1805546814635168e-15 41.19545627032294 0.0 0.0 0.0 155.08922505589842 16.704882662946 -53.37232901253823 -135.25535606618124 -12.706080264146104 -82.77271958182237 132.57706490326703 3.1805546814635168e-15 -45.2751828101215 0.0 0.0 0.0 0.0832093104845825 4.004659363126667 -1.6263232317499943 0.0 0.0 0.0 0.0 0.0 0.0 0.0 0.0 0.0 0.0 0.0 0.0 -60.22044165154092 49.563325101045585 -48.42154713957961 16.248399582593976 -6.742109839846679e-16 -4.7229522264234565e-15 179.99999999999997 -70.4038111964319 179.99999999999994 1.5902773407317584e-15 8.827812596100317e-32 6.3611093629270335e-15 65.87674077447656 46.516781165681785 47.48321282504317 -11.192913594535314 1.7218645868884286e-15 -9.41864006030309e-15 -8.404508021775992e-14 81.4783276484587 9.757642951841689e-14 -6.3611093629270335e-15 -3.531125038440127e-31 6.3611093629270335e-15 1.2879122910403835 1.6569519075659274e-15 -1.8623523452295695e-17 0.0 0.0 0.0
57.83223803043366 -32.754369306564335 468.4091485977173 -178.908550501711 -71.55546751990988 -179.27503162115687 -148.31201205036243 22.948059937731028 54.755051179507674 128.5952303219401 -14.921814971005146 81.40921394860146 152.7685564275903 1.4312496066585827e-14 43.57017091542028 -7.951386703658792e-16 0.0 0.0 162.15731873510688 10.928672762260064 -55.78368394235433 -144.65562586883016 -11.232329999477292 -82.77138906496991 111.917708365485 3.1805546814635168e-15 -54.87228492965983 0.0 0.0 0.0 0.11848658051186478 3.294106439670906 -1.0692137438094083 0.0 0.0 -9.939233379573492e-17 0.0 0.0 -9.939233379573492e-17 0.0 0.0 -9.939233379573492e-17 0.0 0.0 -9.939233379573492e-17 -56.06034621052163 46.11396579537102 -51.152103144074964 13.175597815518229 6.319108349962352e-15 -7.29782151435661e-16 -180.0 -62.91164204533732 -180.0 1.5902773407317584e-15 0.0 0.0 55.1723494197116 51.77848707641295 56.91823752408726 -12.85858010081653 2.8044027752251688e-15 3.516700333816966e-15 2.345341007840716e-15 67.58062896248283 -9.223536457624129e-15 0.0 0.0 -3.1805546814635176e-15 2.574588936339395 -1.0588822443275248e-15 2.379446919093833e-17 0.0 0.0 0.0
57.865781736373904 -33.71569565534592 468.29680252075195 -173.67857740038204 -71.61084006630568 -174.86712376947426 -148.8459598848978 22.095124120854493 55.86069316658969 131.08282649156538 -15.228797786802234 83.99362174429145 156.69284267035943 1.5902773407317584e-15 45.00493326156211 3.1805546814635176e-15 0.0 0.0 167.66604856872607 6.502580891968422 -57.22297595349851 -151.64825223214905 -9.60220746788851 -82.99702910978912 106.36269008210324 0.0 -58.59254723023973 0.0 0.0 0.0 0.11428215268550804 2.676444909771407 -0.6353935179395657 0.0 0.0 4.969616689786745e-17 0.0 0.0 4.969616689786745e-17 0.0 0.0 4.969616689786745e-17 0.0 0.0 4.969616689786745e-17 -55.4282218590195 41.56079651316259 -51.220082215583254 10.095789783675192 -1.3417428696337655e-14 1.0763991061439296e-14 180.0 -59.9373804254746 -180.0 -1.5902773407317584e-15 0.0 0.0 52.37228199006536 51.857914943367724 60.56615800011802 -12.264202230481448 -6.494587953217735e-15 9.016771403789151e-16 1.406398781632375e-14 64.3834375848172 -1.6370368526333402e-14 0.0 0.0 1.5902773407317584e-15 3.9357100182179834 -1.1175043176855388e-16 3.839639829015528e-18 1.987846675914698e-16 0.0 0.0
